inDegrees=no
num_controls=7
num_derivatives=13
num_iterations=148
num_multipliers=7
num_parameters=0
num_slacks=7
num_states=26
objective=5.864510
objective_accelerations=0.610837
objective_balance=0.018387
objective_effort=0.468164
objective_height=4.643189
objective_ligament=0.123934
solver_duration=1233.410961
status=Solve_Succeeded
success=true
DataType=double
version=3
OpenSimVersion=4.4-2022-07-23-0e9fedc
endheader
time	/jointset/ground_pelvis/pelvis_tilt/value	/jointset/ground_pelvis/pelvis_tx/value	/jointset/ground_pelvis/pelvis_ty/value	/jointset/hip_r/hip_flexion_r/value	/jointset/hip_r/hip_adduction_r/value	/jointset/hip_r/hip_rotation_r/value	/jointset/back/lumbar_extension/value	/jointset/patellofemoral_r/patellar_flexion_r/value	/jointset/knee_r/knee_flexion_r/value	/jointset/knee_r/knee_adduction_r/value	/jointset/knee_r/knee_rotation_r/value	/jointset/ankle_r/ankle_angle_r/value	/jointset/subtalar_r/subtalar_angle_r/value	/jointset/ground_pelvis/pelvis_tilt/speed	/jointset/ground_pelvis/pelvis_tx/speed	/jointset/ground_pelvis/pelvis_ty/speed	/jointset/hip_r/hip_flexion_r/speed	/jointset/hip_r/hip_adduction_r/speed	/jointset/hip_r/hip_rotation_r/speed	/jointset/back/lumbar_extension/speed	/jointset/patellofemoral_r/patellar_flexion_r/speed	/jointset/knee_r/knee_flexion_r/speed	/jointset/knee_r/knee_adduction_r/speed	/jointset/knee_r/knee_rotation_r/speed	/jointset/ankle_r/ankle_angle_r/speed	/jointset/subtalar_r/subtalar_angle_r/speed	/forceset/tau_hip_flexion_r	/forceset/tau_hip_adduction_r	/forceset/tau_hip_rotation_r	/forceset/tau_knee_flexion_r	/forceset/tau_ankle_angle_r	/forceset/tau_subtalar_angle_r	/forceset/tau_lumbar_extension	lambda_cid13_p0	lambda_cid14_p0	lambda_cid14_p1	lambda_cid14_p2	lambda_cid14_p3	lambda_cid14_p4	lambda_cid14_p5	/jointset/ground_pelvis/pelvis_tilt/accel	/jointset/ground_pelvis/pelvis_tx/accel	/jointset/ground_pelvis/pelvis_ty/accel	/jointset/hip_r/hip_flexion_r/accel	/jointset/hip_r/hip_adduction_r/accel	/jointset/hip_r/hip_rotation_r/accel	/jointset/back/lumbar_extension/accel	/jointset/patellofemoral_r/patellar_flexion_r/accel	/jointset/knee_r/knee_flexion_r/accel	/jointset/knee_r/knee_adduction_r/accel	/jointset/knee_r/knee_rotation_r/accel	/jointset/ankle_r/ankle_angle_r/accel	/jointset/subtalar_r/subtalar_angle_r/accel	gamma_cid13_p0	gamma_cid14_p0	gamma_cid14_p1	gamma_cid14_p2	gamma_cid14_p3	gamma_cid14_p4	gamma_cid14_p5
1.5	-0.0871161778836419	0.03882009620447208	0.8169936186760607	0.8051141457465466	-0.2525891309938067	-0.05352179471698194	-0.6266670239060403	0.9466335022473172	0.9466335022473371	0.06386932515054862	0.1736473643818726	0.3043392020715945	0.09503581178506794	0.477035064856443	0.2129125059260407	0.49951906028298	-2.001722515960787	0.04475401560914986	-0.5440591497022181	0.7988945617629514	-1.967092448379356	-1.967092448379348	0.06419977138847133	0.006023272319518543	-0.5197626591642386	-0.1009555592815813	-0.162229061675236	-0.003975584409466498	0.03611524310177857	-0.3029911435025435	-0.0004153301906594737	-0.01133940912667686	0.2145903299451636	-8.375396775311001	-42.69653747034021	-10.99742158892678	0.5725020263270109	-1.055520952487315	-632.8239721181161	63.01568818127725	0.08730948556939096	0.5248763711856032	-0.4620624491318178	-0.9609688461433011	0.2446456935272486	-0.05977751394718728	1.796278714208547	-1.470585481451192	-1.470585481451196	0.5761482931389115	0.003628971386671316	-0.638684751352213	0.2195015983259805	9.246714590641173e-08	-8.187353379547237e-09	-1.732303185233993e-06	1.720549444045476e-07	1.762309859143497e-07	2.110126932921549e-07	-1.155847500579982e-06
1.51	-0.08234169825967193	0.0409752392122398	0.8219646801475086	0.7850508997471566	-0.2521301000480456	-0.05896541495790087	-0.6185899056822525	0.926891606136111	0.9268916061361537	0.06454120847440825	0.173709224358604	0.2991102038672706	0.09403620365716281	0.4777962622252878	0.2180893144864819	0.4945842990285261	-2.010652693369761	0.04703222071601367	-0.5445780438683007	0.8164084609234593	-1.980996502352528	-1.980996502352526	0.07023600596479895	0.006336754549293536	-0.5259534707274303	-0.098976416626208	-0.154886364115302	-0.005017972538124465	0.03529812178513689	-0.299077224347099	0.001750901844119686	-0.01198662194073068	0.2078476637082448	-9.410702434192144	-41.72672849601013	-11.01652448823557	0.470261737717215	-1.204788217097312	-627.9064124763127	62.46882039505333	0.06083406330356879	0.5100914817631312	-0.5254796730184598	-0.8179429812205451	0.2163663448752873	-0.03475891659870912	1.710852206189354	-1.306794693704886	-1.306794693706014	0.6260326920721343	0.04343926776987675	-0.5967130877955508	0.1853855954551958	9.765075242887648e-08	1.041532072424042e-08	-1.523843992962878e-06	2.82393192864706e-07	1.442471961591905e-07	2.154172806791337e-07	-1.012592232736631e-06
1.52	-0.07756154482185992	0.04318135198226954	0.8268831346645286	0.7649065718150858	-0.251648895366088	-0.06441158685019753	-0.6103412671290177	0.9070193736175187	0.9070193736175425	0.06527518847467158	0.1737738654413566	0.2938218108015096	0.09305603995507547	0.47816982762458	0.2231064583784484	0.4889976693974147	-2.017938902496597	0.04918876284720124	-0.5445694799807542	0.8331986276526698	-1.993159729863891	-1.993159729863897	0.07661910662879741	0.006579493538946025	-0.5316416314503348	-0.09706667411833798	-0.1475436665553777	-0.006060360666650428	0.03448100046779692	-0.295163305191664	0.00391713387894784	-0.01263383475455265	0.2011049974712979	-10.46551708637439	-40.75686501083803	-11.03104053544312	0.3620611495257953	-1.363438832334625	-622.9865172799518	61.96494668802907	0.009783091658807716	0.49294343749076	-0.59243612446331	-0.6321751897156721	0.2203130983920985	0.04571409677863707	1.651532227948982	-1.122420189089575	-1.122420189089564	0.6455215106730909	-0.01051967663782602	-0.5381545832946381	0.2056215688253481	1.041877051064102e-07	2.773615658542401e-08	-1.36967172722887e-06	3.863904183696254e-07	1.189419095204426e-07	2.227811532328625e-07	-9.125400095663258e-07
1.53	-0.07277966230723666	0.04543677189109496	0.8317425241794552	0.744697704263103	-0.2511467267815003	-0.06985484545097644	-0.601928443889473	0.8870342796017033	0.887034279601731	0.06607479177525181	0.1738402956965307	0.2884790792238409	0.09209465960976822	0.4781378582407494	0.2279438048083908	0.4827779668079751	-2.023550994837667	0.05122566474846946	-0.5440110893130342	0.8492306711327782	-2.003560772229581	-2.003560772229546	0.0833364891877892	0.006692249574629714	-0.5368171880448844	-0.09521664837394213	-0.1401556748765771	-0.007203339575897819	0.03364206637808115	-0.2914811971600499	0.00616885984314875	-0.01333875207621678	0.1943209868608778	-11.52229597353771	-39.78199478268265	-11.07295281387287	0.2618976568114825	-1.489925906324696	-618.3238215315613	61.46544337160084	-0.0200069153459271	0.4740906560976013	-0.6520295601871376	-0.4831790722413811	0.1924727794089224	0.07174100587674569	1.558738039413336	-0.9542243866342656	-0.9542243866282345	0.6899208362670634	0.02009974703160776	-0.4940969518326994	0.1734762824573374	1.121625880737047e-07	4.36950393138408e-08	-1.273179320940537e-06	4.83650306984603e-07	1.007325324428815e-07	2.332892662762631e-07	-8.583910213611325e-07
1.54	-0.06800016347883904	0.04773955734628983	0.8365366582216869	0.7244412252245171	-0.2506247703692099	-0.07529035225425036	-0.593359360688855	0.8669541195369853	0.8669541195369971	0.06694258374308636	0.1739074388126912	0.2830872239293633	0.0911515361629484	0.4776930903792327	0.2325795676523384	0.4759465748584072	-2.027461199816303	0.05314632838629463	-0.5430191204809744	0.8644506198677558	-2.012172939648294	-2.01217293964822	0.09025684005695639	0.006722065744716571	-0.5414663748113346	-0.09341529442111393	-0.13276768319781	-0.008346318485062357	0.03280313228800481	-0.2877990891284437	0.008420585807381569	-0.014043669397739	0.1875369762504145	-12.57773937586805	-38.80816657966761	-11.11171297297958	0.1574219329710883	-1.622477603302657	-613.6741193867119	61.01125690515807	-0.07277660387851059	0.4526267202918798	-0.7147739964889599	-0.291797717229127	0.1970654457035487	0.1324297296466227	1.489113278922809	-0.764645199694432	-0.7646451996944316	0.686115172708177	-0.02710764975720844	-0.4328806176746515	0.1958872105118513	1.208272525873102e-07	5.793632042976664e-08	-1.214964793969567e-06	5.740750512956637e-07	8.744577971481754e-08	2.456663849211613e-07	-8.324950768016679e-07
1.55	-0.0632272026999891	0.05008763557468913	0.8412594994688696	0.7041541802919561	-0.2500842450910479	-0.08071369979885687	-0.5846422378530455	0.8467968236949277	0.8467968236949297	0.06788068827025401	0.1739743829489244	0.2776515220044349	0.09022611690898406	0.4768278115182587	0.2369962836945448	0.4685273749483695	-2.02965765352989	0.05493796494148523	-0.5415891458034655	0.8788268986607213	-2.018979972919495	-2.018979972919497	0.09738386872293681	0.006652874552064376	-0.5455823013874095	-0.09167586800069755	-0.1253909129937443	-0.009566805288960287	0.03194995643312167	-0.2843470062264969	0.01075092620447199	-0.01482328219624379	0.1807777620984928	-13.62745105540669	-37.83650301646644	-11.18774662070929	0.06397729613933249	-1.730043388382358	-609.3504368627227	60.54543101473227	-0.1040863585707041	0.430240016517732	-0.7695842788186112	-0.1400406725460118	0.1671074685864625	0.1576523700670704	1.389827884370259	-0.5928211226734565	-0.5928211226849861	0.7288092672588818	0.001199738273304868	-0.387157960166091	0.1617688927114351	1.302866654042741e-07	7.01986257747791e-08	-1.200853040994684e-06	6.566245206478637e-07	7.983074634595641e-08	2.601969230634368e-07	-8.391515520948889e-07
1.56	-0.05846503127602128	0.05247869015757677	0.8459053304588403	0.6838538765274255	-0.2495264245056955	-0.086120873390035	-0.5757857636883316	0.8265806397737865	0.8265806397737832	0.06889062559482065	0.1740402400916999	0.272177418957226	0.08931785162620579	0.4755352194027295	0.2411748385500068	0.4605445234160115	-2.030112966208389	0.05660538982304684	-0.5397843297953883	0.8923208856491679	-2.023950555464321	-2.023950555464401	0.1046233995375456	0.006504667051107623	-0.5491465992671694	-0.0899845001840804	-0.1180141427897507	-0.01078729209282281	0.03109678057831387	-0.2808949233245623	0.01308126660157658	-0.01560289499469319	0.1740185479465013	-14.66783276256787	-36.86624787090911	-11.26060126663778	-0.03388795248393466	-1.843302114616896	-605.04602239234	60.12934612437898	-0.1582392547896263	0.404994482943113	-0.827504320953004	0.05643048978857176	0.1722231109777687	0.2073979957603026	1.312654918019029	-0.3973550544197818	-0.3973550544197818	0.7086156024338551	-0.04291091141816093	-0.322554878411528	0.1862754897520527	1.391256541318942e-07	8.224881181501578e-08	-1.19251616295524e-06	7.343536210294473e-07	7.248083792859873e-08	2.773772529676482e-07	-8.520334329259097e-07
1.57	-0.05371792542743039	0.05491029737969216	0.850468617710578	0.6635576782890694	-0.2489526024826225	-0.09150810120735733	-0.5667988519986733	0.8063239156649372	0.8063239156649299	0.06997358237764716	0.1741041677459023	0.2666704373663925	0.08842620265935579	0.4738115728360825	0.2451023665280394	0.452028047055593	-2.028832227673766	0.05813733967793272	-0.5376099719495391	0.9049078518795177	-2.027082542379988	-2.027082542379979	0.1119724643924782	0.006268934248114885	-0.5521531879048106	-0.08835151910776387	-0.110669721690254	-0.01211613231545377	0.03023517416394156	-0.2777546127768823	0.01557591700173628	-0.01646036410349528	0.1673295435542455	-15.69616366603804	-35.87575857192522	-11.36830069658484	-0.1209716870367305	-1.966082565561876	-601.157459943644	59.72030533720665	-0.190576800873961	0.3800083379929116	-0.8763893412433876	0.2080749332741342	0.1404557202776073	0.2303455529233538	1.208677414974058	-0.2243922875737478	-0.2243922875606202	0.7485761466183827	-0.01555664028864321	-0.2751963713032894	0.1507881075700779	1.471891127478345e-07	9.403384872428276e-08	-1.191397878585095e-06	8.060572601977602e-07	6.54623357006204e-08	2.978698225742797e-07	-8.726970706791802e-07
1.58	-0.04899028593316099	0.05737985515813956	0.8549442061891801	0.6432831233156506	-0.2483641060014897	-0.0968720072714374	-0.5576906786588264	0.7860452173314336	0.7860452173314368	0.07113013465290355	0.1741654076369863	0.2611362927862098	0.08755067924146914	0.4716419485385716	0.2487649498164072	0.4430047687888809	-2.025784313220147	0.05954028143415836	-0.5351199791466418	0.9165732156871195	-2.028345400393002	-2.028345400392906	0.1193424980312246	0.005967114423163927	-0.5545791971369647	-0.08675939039149948	-0.1033253005907846	-0.01344497253807438	0.02937356774975237	-0.2746143022292058	0.01807056740189994	-0.01731783321228482	0.1606405391619637	-16.71032658598884	-34.8860060039965	-11.47268104502033	-0.2125241032500953	-2.096701979982345	-597.2797259635546	59.36344195682681	-0.2474348009625097	0.3520055450102449	-0.9288647022117279	0.4098656735876732	0.1464214912457276	0.270524987169974	1.12833443346937	-0.02352927388933661	-0.02352927388933651	0.7128093591965993	-0.05612831580987013	-0.2064389973140208	0.1781050177416872	1.550743252475674e-07	1.05657909270518e-07	-1.195607404601056e-06	8.759057343656978e-07	5.893469826161458e-08	3.207640480773978e-07	-8.985078674887819e-07
1.59	-0.04428654566605711	0.05988465944755045	0.8593271357550261	0.6230478320954145	-0.2477622862052381	-0.1022093843757969	-0.5484706001156573	0.7657632277705593	0.7657632277705444	0.07236058621081538	0.1742232576719925	0.2555807749830541	0.08669079643886153	0.4690296794248181	0.252145972111661	0.4335056673908856	-2.02097183332091	0.06080051332660055	-0.5323081085751378	0.9272797404792283	-2.027731666844181	-2.027731666844176	0.1267412800638415	0.005592369304344857	-0.5564239134270428	-0.08522349514144988	-0.09603868956325275	-0.01480592705142749	0.02850610680137508	-0.271737914680543	0.02063490029561926	-0.01829085511417042	0.1540368805563802	-17.70882112033448	-33.91091074757287	-11.63675462356098	-0.2866290119878582	-2.196086202894948	-593.8417082581107	58.95959023185347	-0.2795781611549368	0.3236700949088337	-0.9716819061563354	0.5622675412753849	0.1123892808290613	0.2938375332912366	1.017398631843751	0.1519179557640971	0.1519179557505104	0.7522844589260462	-0.02956171270468437	-0.1583845315718324	0.1403078620656858	1.62717632303876e-07	1.170635018954959e-07	-1.207047530426734e-06	9.432364846045547e-07	5.307323446478574e-08	3.469176637257478e-07	-9.313040944462608e-07
